<?xml version="1.0" encoding="UTF-8" standalone="no"?>
<svg width="30px" height="41px" viewBox="0 0 30 41" version="1.1" xmlns="http://www.w3.org/2000/svg" xmlns:xlink="http://www.w3.org/1999/xlink">
    <!-- Generator: sketchtool 45.2 (43514) - http://www.bohemiancoding.com/sketch -->
    <title>C003AF97-5694-4C05-95EB-65C6F2279FC5</title>
    <desc>Created with sketchtool.</desc>
    <defs></defs>
    <g id="Page-1" stroke="none" stroke-width="1" fill="none" fill-rule="evenodd">
        <g id="LP-USP" transform="translate(-730.000000, -3873.000000)" fill-rule="nonzero" fill="#FFFFFF">
            <g id="Group-11" transform="translate(0.000000, 3743.000000)">
                <g id="Group-5" transform="translate(592.000000, 105.000000)">
                    <g id="Group-3" transform="translate(138.000000, 25.000000)">
                        <g id="arrow">
                            <g id="Group">
                                <path d="M15.2545035,8.6806481 L26.9596282,20.4106756 C27.3040752,20.7552798 26.7870391,21.2725518 26.442592,20.9279476 L15.6283327,10.10947 C15.4823461,9.96342651 15.3654395,10.0106045 15.3654395,10.2130695 L15.3654395,39.6924099 C15.3654395,39.8943435 15.2023574,40.0582317 14.9997845,40.0582317 C14.797943,40.0582317 14.6341296,39.8943435 14.6341296,39.6924099 L14.6341296,10.2130695 C14.6341296,10.0070536 14.5164361,9.96422144 14.3712538,10.10947 L3.55770834,20.9279476 C3.21326137,21.2725518 2.69549385,20.7552798 3.04067217,20.4106756 L14.7326775,8.6806481 C14.8751434,8.53771895 15.1103244,8.53616232 15.2545035,8.6806481 Z M0.365853659,0.731707244 C0.163798244,0.731707244 7.10542736e-15,0.567909 7.10542736e-15,0.365853585 C7.10542736e-15,0.163798171 0.163798244,-7.31707326e-08 0.365853659,-7.31707326e-08 L29.6341463,-7.31707326e-08 C29.8362018,-7.31707326e-08 30,0.163798171 30,0.365853585 C30,0.567909 29.8362018,0.731707244 29.6341463,0.731707244 L0.365853659,0.731707244 Z" id="Shape" transform="translate(15.000000, 20.029116) rotate(-180.000000) translate(-15.000000, -20.029116) "></path>
                            </g>
                        </g>
                    </g>
                </g>
            </g>
        </g>
    </g>
</svg>