<?xml version="1.0" encoding="UTF-8" standalone="no"?>
<svg width="141px" height="37px" viewBox="0 0 141 37" version="1.1" xmlns="http://www.w3.org/2000/svg" xmlns:xlink="http://www.w3.org/1999/xlink">
    <!-- Generator: sketchtool 45.2 (43514) - http://www.bohemiancoding.com/sketch -->
    <title>057A2A50-0807-4E49-96E7-01644A15D967</title>
    <desc>Created with sketchtool.</desc>
    <defs></defs>
    <g id="Page-1" stroke="none" stroke-width="1" fill="none" fill-rule="evenodd">
        <g id="LP-USP" transform="translate(-400.000000, -160.000000)">
            <g id="Group-6">
                <g id="logo-usp" transform="translate(401.000000, 160.035156)">
                    <path d="M65.5997514,30.6399406 C66.8690629,30.6399406 68.0041033,30.4283919 69.0049066,30.005288 C70.0057099,29.5821842 70.8478366,28.9882204 71.531312,28.2233789 C72.2147875,27.4585374 72.7395911,26.5309775 73.1057386,25.4406714 C73.4718862,24.3503654 73.6549572,23.1298919 73.6549572,21.7792143 L73.6549572,0.64040159 L80.2211704,0.64040159 L80.2211704,21.7792143 C80.2211704,23.8784602 79.883506,25.8190131 79.2081672,27.6009312 C78.5328284,29.3828492 77.5645861,30.9206459 76.3034112,32.2143672 C75.0422363,33.5080885 73.5085079,34.5170133 71.70218,35.2411718 C69.8958521,35.9653303 67.8617296,36.3274041 65.5997514,36.3274041 C63.3215,36.3274041 61.279241,35.9653303 59.4729131,35.2411718 C57.6665852,34.5170133 56.1328568,33.5080885 54.8716819,32.2143672 C53.6105071,30.9206459 52.6422647,29.3828492 51.9669259,27.6009312 C51.2915871,25.8190131 50.9539228,23.8784602 50.9539228,21.7792143 L50.9539228,0.64040159 L57.520136,0.64040159 L57.520136,21.7548046 C57.520136,23.1054822 57.703207,24.3259557 58.0693545,25.4162617 C58.4355021,26.5065678 58.9643739,27.4381959 59.655986,28.211174 C60.347598,28.9841522 61.193793,29.5821842 62.1945963,30.005288 C63.1953996,30.4283919 64.3304399,30.6399406 65.5997514,30.6399406 Z M106.437204,7.06015648 C106.241925,7.4018942 106.034444,7.65005714 105.814756,7.80465278 C105.595067,7.95924841 105.322495,8.03654506 104.997031,8.03654506 C104.655293,8.03654506 104.285083,7.91042947 103.886389,7.65819449 C103.487695,7.40595951 103.01171,7.1252506 102.45842,6.81605934 C101.905131,6.50686808 101.25828,6.22615917 100.517848,5.97392419 C99.7774162,5.72168922 98.9027435,5.59557362 97.8938036,5.59557362 C96.9825031,5.59557362 96.185127,5.70541624 95.5016516,5.92510476 C94.8181762,6.14479329 94.2445536,6.44991167 93.7807667,6.84046906 C93.3169798,7.23102644 92.971179,7.69887462 92.7433539,8.24402763 C92.5155287,8.78918065 92.4016179,9.38721267 92.4016179,10.0381416 C92.4016179,10.8680761 92.6335078,11.5596777 93.0972947,12.1129674 C93.5610816,12.666257 94.1753866,13.1381734 94.9402282,13.5287308 C95.7050697,13.9192882 96.5756742,14.2691573 97.5520676,14.5783485 C98.5284611,14.8875398 99.5292494,15.2170676 100.554462,15.566942 C101.579676,15.9168163 102.580464,16.3236408 103.556857,16.7874277 C104.533251,17.2512146 105.403855,17.8370419 106.168697,18.5449271 C106.933538,19.2528124 107.547843,20.1193486 108.01163,21.1445617 C108.475417,22.1697748 108.707307,23.4146578 108.707307,24.879248 C108.707307,26.474024 108.434735,27.9670699 107.889582,29.3584306 C107.344429,30.7497913 106.547053,31.9621283 105.49743,32.9954781 C104.447807,34.0288278 103.16631,34.8424768 101.6529,35.4364495 C100.13949,36.0304222 98.4064174,36.3274041 96.4536305,36.3274041 C95.330778,36.3274041 94.2242153,36.2175615 93.1339093,35.9978729 C92.0436033,35.7781844 90.9980643,35.4649295 89.997261,35.0580989 C88.9964577,34.6512683 88.0566931,34.1630789 87.177939,33.5935161 C86.2991849,33.0239532 85.5180818,32.389307 84.8346064,31.6895583 L86.7629738,28.5407052 C86.9257061,28.31288 87.1372548,28.1216725 87.3976264,27.9670769 C87.657998,27.8124813 87.9346387,27.7351846 88.2275567,27.7351846 C88.6343873,27.7351846 89.0737578,27.9019827 89.5456813,28.2355838 C90.0176048,28.5691849 90.5790226,28.9393952 91.2299516,29.3462258 C91.8808806,29.7530564 92.6416424,30.1232667 93.5122599,30.4568678 C94.3828774,30.7904689 95.4284164,30.9572669 96.6489082,30.9572669 C98.520329,30.9572669 99.9686242,30.5138282 100.993837,29.6269375 C102.01905,28.7400467 102.531649,27.466686 102.531649,25.8068172 C102.531649,24.8792434 102.299759,24.1225498 101.835973,23.5367137 C101.372186,22.9508776 100.757881,22.45862 99.9930391,22.059926 C99.2281975,21.661232 98.3575931,21.3235677 97.3811996,21.0469229 C96.4048062,20.770278 95.4121544,20.4692279 94.4032145,20.1437634 C93.3942746,19.8182989 92.4016228,19.4277474 91.4252293,18.9720971 C90.4488358,18.5164468 89.5782314,17.9224831 88.8133899,17.190188 C88.0485483,16.4578929 87.4342433,15.5425377 86.9704564,14.4440951 C86.5066695,13.3456525 86.2747796,11.9909269 86.2747796,10.3798776 C86.2747796,9.09429293 86.531079,7.84127345 87.0436856,6.62078163 C87.5562921,5.4002898 88.300781,4.31813662 89.2771744,3.37428961 C90.2535679,2.4304426 91.4577684,1.67374902 92.8898122,1.10418616 C94.3218559,0.534623313 95.9654269,0.249846159 97.8205745,0.249846159 C99.9035472,0.249846159 101.823759,0.575305764 103.581267,1.22623474 C105.338775,1.87716371 106.835889,2.7884506 108.072655,3.96012275 L106.437204,7.06015648 Z M120.985393,23.512304 L120.985393,35.9368487 L114.41918,35.9368487 L114.41918,0.64040159 L125.891746,0.64040159 C128.251364,0.64040159 130.293623,0.917042254 132.018584,1.47033188 C133.743546,2.02362151 135.167432,2.79658807 136.290284,3.78925475 C137.413137,4.78192143 138.247127,5.96984899 138.79228,7.35307306 C139.337433,8.73629713 139.610006,10.2496843 139.610006,11.8932799 C139.610006,13.6019685 139.325228,15.1682428 138.755666,16.59215 C138.186103,18.0160571 137.331771,19.2405989 136.192646,20.265812 C135.05352,21.2910251 133.625566,22.0884012 131.908741,22.657964 C130.191916,23.2275269 128.186271,23.512304 125.891746,23.512304 L120.985393,23.512304 Z M120.985393,18.386264 L125.891746,18.386264 C127.095965,18.386264 128.145572,18.2357389 129.040599,17.9346843 C129.935627,17.6336296 130.680115,17.2023956 131.274088,16.6409694 C131.868061,16.0795432 132.3115,15.396078 132.604418,14.5905534 C132.897336,13.7850288 133.043792,12.8859466 133.043792,11.8932799 C133.043792,10.9494329 132.897336,10.0951015 132.604418,9.33025993 C132.3115,8.56541838 131.872129,7.91449918 131.286293,7.37748277 C130.700457,6.84046637 129.960036,6.42957362 129.065009,6.14479219 C128.169982,5.86001077 127.112238,5.71762219 125.891746,5.71762219 L120.985393,5.71762219 L120.985393,18.386264 Z" id="USP" fill="#3A2651"></path>
                    <g id="Group" transform="translate(0.000000, 21.019801)" stroke="#3A2651">
                        <path d="M2.01115434,1.69511906 L64.5196682,1.69511906" id="Line" stroke-width="0.5" stroke-linecap="square"></path>
                        <circle id="Oval" fill="#3A2651" cx="2.71219049" cy="2.71219049" r="2.71219049"></circle>
                        <circle id="Oval" fill="#3A2651" cx="65.0925718" cy="2.71219049" r="2.71219049"></circle>
                    </g>
                </g>
            </g>
        </g>
    </g>
</svg>