<?xml version="1.0" encoding="UTF-8"?>
<svg width="150px" height="150px" viewBox="0 0 150 150" version="1.1" xmlns="http://www.w3.org/2000/svg" xmlns:xlink="http://www.w3.org/1999/xlink">
    <!-- Generator: Sketch 45.2 (43514) - http://www.bohemiancoding.com/sketch -->
    <title>logo-usp-1</title>
    <desc>Created with Sketch.</desc>
    <defs>
        <rect id="path-1" x="0" y="0" width="150" height="150"></rect>
    </defs>
    <g id="Page-1" stroke="none" stroke-width="1" fill="none" fill-rule="evenodd">
        <g id="LP-USP" transform="translate(-401.000000, 0.000000)">
            <g id="Group-6">
                <g id="logo-usp-1" transform="translate(401.000000, 0.000000)">
                    <g id="Rectangle-5">
                        <use fill="#FFFFFF" fill-rule="evenodd" xlink:href="#path-1"></use>
                        <rect stroke="#D6D5D5" stroke-width="1" x="0.5" y="0.5" width="149" height="149"></rect>
                    </g>
                    <g id="Group-10" transform="translate(25.000000, 44.000000)">
                        <g id="logo-usp">
                            <path d="M46.8759414,21.8945351 C47.7829596,21.8945351 48.5940311,21.7433677 49.30918,21.4410282 C50.024329,21.1386888 50.6260917,20.7142572 51.1144862,20.1677205 C51.6028806,19.6211839 51.9778922,18.9583728 52.239532,18.1792674 C52.5011719,17.400162 52.6319899,16.5280421 52.6319899,15.5628817 L52.6319899,0.457614956 L57.3240416,0.457614956 L57.3240416,15.5628817 C57.3240416,17.0629503 57.0827551,18.4496209 56.6001749,19.722935 C56.1175946,20.996249 55.4257129,22.09512 54.5245089,23.0195809 C53.6233048,23.9440418 52.5273409,24.6649942 51.2365842,25.1824598 C49.9458274,25.6999253 48.4922944,25.9586542 46.8759414,25.9586542 C45.2479599,25.9586542 43.7886127,25.6999253 42.497856,25.1824598 C41.2070992,24.6649942 40.1111353,23.9440418 39.2099313,23.0195809 C38.3087272,22.09512 37.6168455,20.996249 37.1342653,19.722935 C36.6516851,18.4496209 36.4103986,17.0629503 36.4103986,15.5628817 L36.4103986,0.457614956 L41.1024503,0.457614956 L41.1024503,15.5454391 C41.1024503,16.5105996 41.2332682,17.3827194 41.4949081,18.1618248 C41.756548,18.9409302 42.1344666,19.6066484 42.6286752,20.1589992 C43.1228839,20.7113501 43.7275537,21.1386888 44.4427027,21.4410282 C45.1578517,21.7433677 45.9689231,21.8945351 46.8759414,21.8945351 Z M76.0573631,5.04501121 C75.9178219,5.28920843 75.7695615,5.46653946 75.6125776,5.57700963 C75.4555937,5.68747981 75.2608202,5.74271406 75.0282514,5.74271406 C74.7840542,5.74271406 74.5195112,5.65259501 74.2346144,5.47235421 C73.9497177,5.2921134 73.609591,5.09152584 73.214224,4.8705855 C72.8188571,4.64964516 72.3566336,4.44905759 71.8275396,4.26881679 C71.2984456,4.08857598 70.6734264,3.99845693 69.9524632,3.99845693 C69.3012706,3.99845693 68.7314856,4.07694772 68.2430912,4.23393164 C67.7546968,4.39091557 67.3448004,4.60894553 67.0133899,4.88802807 C66.6819794,5.1671106 66.4348788,5.50142321 66.2720806,5.89097592 C66.1092825,6.28052862 66.0278846,6.70786735 66.0278846,7.17300491 C66.0278846,7.7660553 66.1935874,8.26025654 66.5249979,8.65562347 C66.8564084,9.0509904 67.2953754,9.38821007 67.8419121,9.66729261 C68.3884487,9.94637514 69.0105609,10.1963828 69.7082672,10.4173232 C70.4059735,10.6382635 71.1211118,10.8737359 71.8537035,11.1237473 C72.5862951,11.3737587 73.3014334,11.6644654 73.9991397,11.9958759 C74.6968461,12.3272864 75.3189582,12.7459039 75.8654949,13.251741 C76.4120315,13.7575781 76.8509985,14.3767832 77.182409,15.1093749 C77.5138195,15.8419665 77.6795223,16.7315288 77.6795223,17.7780883 C77.6795223,18.9176753 77.4847488,19.9845686 77.0951961,20.9788001 C76.7056434,21.9730316 76.1358585,22.8393373 75.3858242,23.5777432 C74.6357898,24.3161491 73.720064,24.8975623 72.6386192,25.3220004 C71.5571743,25.7464384 70.3187642,25.9586542 68.9233515,25.9586542 C68.1209892,25.9586542 67.3302672,25.8801634 66.5511618,25.7231795 C65.7720564,25.5661956 65.0249404,25.3423515 64.3097914,25.0516405 C63.5946424,24.7609295 62.9231101,24.4120816 62.2951744,24.0050862 C61.6672387,23.5980909 61.109082,23.1445885 60.6206875,22.6445657 L61.9986507,20.394474 C62.1149351,20.2316758 62.2661025,20.0950437 62.4521575,19.9845735 C62.6382126,19.8741034 62.8358931,19.8188691 63.045205,19.8188691 C63.3359159,19.8188691 63.6498791,19.9380588 63.9871038,20.1764418 C64.3243285,20.4148248 64.7255037,20.6793678 65.1906412,20.9700788 C65.6557788,21.2607898 66.1994002,21.5253328 66.8215216,21.7637158 C67.4436431,22.0020988 68.1907591,22.1212885 69.0628921,22.1212885 C70.4001625,22.1212885 71.4350781,21.8044183 72.1676697,21.1706684 C72.9002614,20.5369185 73.2665517,19.6270068 73.2665517,18.440906 C73.2665517,17.7780849 73.100849,17.2373706 72.7694385,16.8187468 C72.4380279,16.400123 71.999061,16.048368 71.4525243,15.7634713 C70.9059877,15.4785745 70.2838755,15.237288 69.5861692,15.0396046 C68.8884629,14.8419211 68.1791387,14.6267982 67.4581755,14.3942294 C66.7372123,14.1616606 66.0278881,13.8825823 65.3301818,13.556986 C64.6324755,13.2313897 64.0103633,12.8069581 63.4638267,12.2836783 C62.91729,11.7603985 62.478323,11.1063087 62.1469125,10.321389 C61.815502,9.5364694 61.6497992,8.56841637 61.6497992,7.41720091 C61.6497992,6.49855423 61.8329444,5.60317785 62.1992402,4.73104493 C62.5655361,3.858912 63.0975292,3.08563241 63.7952355,2.41118294 C64.4929419,1.73673348 65.3534334,1.19601918 66.3767361,0.789023811 C67.4000387,0.382028446 68.5744934,0.178533815 69.9001355,0.178533815 C71.3885757,0.178533815 72.7607109,0.411099107 74.0165823,0.876236668 C75.2724537,1.34137423 76.3422541,1.99255704 77.2260154,2.82980465 L76.0573631,5.04501121 Z M86.4531356,16.8013043 L86.4531356,25.6795731 L81.761084,25.6795731 L81.761084,0.457614956 L89.9590925,0.457614956 C91.6452161,0.457614956 93.1045633,0.655295454 94.3371779,1.05066238 C95.5697924,1.44602931 96.5872656,1.99837187 97.3896279,2.70770665 C98.1919901,3.41704143 98.7879387,4.26590475 99.1774914,5.25432207 C99.5670441,6.24273938 99.7618176,7.32416799 99.7618176,8.49864033 C99.7618176,9.71962642 99.5583229,10.8388469 99.1513276,11.8563353 C98.7443322,12.8738237 98.1338483,13.7488506 97.3198576,14.4814423 C96.5058668,15.2140339 95.4854866,15.7838189 94.2586863,16.1908143 C93.031886,16.5978096 91.5987024,16.8013043 89.9590925,16.8013043 L86.4531356,16.8013043 Z M86.4531356,13.1383643 L89.9590925,13.1383643 C90.819597,13.1383643 91.56962,13.0308028 92.2091842,12.8156767 C92.8487483,12.6005506 93.3807414,12.2924016 93.8051795,11.8912204 C94.2296175,11.4900393 94.5464877,11.0016522 94.7557996,10.4260445 C94.9651115,9.85043673 95.0697659,9.20797511 95.0697659,8.49864033 C95.0697659,7.82419087 94.9651115,7.21370697 94.7557996,6.66717034 C94.5464877,6.12063371 94.2325245,5.65550312 93.8139007,5.27176464 C93.3952769,4.88802615 92.8661909,4.59441247 92.2266267,4.39091479 C91.5870626,4.1874171 90.8312254,4.08566979 89.9590925,4.08566979 L86.4531356,4.08566979 L86.4531356,13.1383643 Z" id="USP" fill="#3A2651"></path>
                            <g id="Group" transform="translate(0.000000, 15.020224)" stroke="#3A2651">
                                <path d="M1.43712058,1.21128967 L46.1041409,1.21128967" id="Line" stroke-width="0.5" stroke-linecap="square"></path>
                                <circle id="Oval" fill="#3A2651" cx="1.93806348" cy="1.93806348" r="1.93806348"></circle>
                                <circle id="Oval" fill="#3A2651" cx="46.5135235" cy="1.93806348" r="1.93806348"></circle>
                            </g>
                        </g>
                        <g id="Group-2" transform="translate(0.000000, 31.595157)" fill="#3C3C3C">
                            <path d="M7.54157532,3.49555917 L7.54157532,4.22418496 L1.15538457,4.22418496 L1.15538457,9.12740792 L6.47006681,9.12740792 L6.47006681,9.83888958 L1.15538457,9.83888958 L1.15538457,14.8964098 L7.55871946,14.8964098 L7.54157532,15.6250356 L0.272461557,15.6250356 L0.272461557,3.49555917 L7.54157532,3.49555917 Z M13.1477079,9.4017141 L8.96453863,3.49555917 L9.83031751,3.49555917 C9.91032388,3.49555917 9.96889909,3.51270313 10.0060449,3.54699158 C10.0431907,3.58128002 10.07605,3.62128261 10.1046237,3.66700053 L13.790613,8.98168276 C13.8077572,8.93596484 13.8263298,8.89167626 13.8463314,8.84881571 C13.866333,8.80595515 13.8906203,8.76166658 13.919194,8.71594865 L17.4766023,3.6755726 C17.505176,3.62413993 17.5408926,3.58128002 17.5837531,3.54699158 C17.6266137,3.51270313 17.6766169,3.49555917 17.7337643,3.49555917 L18.573827,3.49555917 L14.3820857,9.35885376 L18.7452684,15.6250356 L17.8794895,15.6250356 C17.7994831,15.6250356 17.7366219,15.6007483 17.690904,15.552173 C17.645186,15.5035977 17.6080408,15.4564518 17.5794671,15.4107339 L13.7563247,9.82174544 C13.7334657,9.90746655 13.6934632,9.99032905 13.6363158,10.0703354 L9.88174992,15.4107339 C9.84174673,15.4621665 9.80031548,15.5107411 9.75745493,15.556459 C9.71459437,15.6021769 9.65887649,15.6250356 9.5902996,15.6250356 L8.76738106,15.6250356 L13.1477079,9.4017141 Z M29.648939,13.5848833 C29.7060864,13.5848833 29.754661,13.6048846 29.7946642,13.6448878 L30.1375469,14.0134867 C29.8860983,14.2820796 29.6132235,14.5235237 29.3189144,14.7378265 C29.0246052,14.9521293 28.7017272,15.1349982 28.3502707,15.2864389 C27.9988141,15.4378795 27.6130749,15.5550299 27.1930415,15.6378937 C26.773008,15.7207574 26.3115497,15.7621886 25.8086525,15.7621886 C24.9685856,15.7621886 24.1985359,15.6150363 23.4984801,15.3207271 C22.7984244,15.026418 22.196957,14.6092482 21.6940598,14.0692052 C21.1911626,13.5291622 20.8011374,12.8762629 20.5239725,12.1104876 C20.2468076,11.3447124 20.1082272,10.4932288 20.1082272,9.55601133 C20.1082272,8.63593808 20.2510936,7.79588381 20.5368306,7.0358233 C20.8225676,6.2757628 21.2225935,5.62286347 21.7369201,5.07710574 C22.2512468,4.531348 22.8684295,4.10846354 23.5884868,3.80843966 C24.3085442,3.50841577 25.1028812,3.35840608 25.9715218,3.35840608 C26.8001592,3.35840608 27.5344923,3.48698582 28.1745433,3.74414914 C28.8145942,4.00131247 29.397489,4.36419306 29.9232452,4.8328018 L29.6575111,5.21854486 C29.6117931,5.28712175 29.54036,5.32140968 29.4432094,5.32140968 C29.3746325,5.32140968 29.2631967,5.25854847 29.1088987,5.13282418 C28.9546007,5.00709989 28.7403011,4.8685195 28.4659936,4.71707888 C28.191686,4.56563825 27.8502354,4.42705787 27.4416315,4.30133357 C27.0330275,4.17560928 26.5429958,4.11274807 25.9715218,4.11274807 C25.240035,4.11274807 24.5699917,4.23847048 23.9613718,4.48991907 C23.3527519,4.74136766 22.829861,5.10139092 22.3926833,5.56999965 C21.9555057,6.03860839 21.614055,6.61007388 21.3683212,7.28441328 C21.1225873,7.95875267 20.9997223,8.71594445 20.9997223,9.55601133 C20.9997223,10.4132224 21.124016,11.1789862 21.3726072,11.8533256 C21.6211984,12.527665 21.9626491,13.0977018 22.3969694,13.5634532 C22.8312897,14.0292045 23.3441799,14.3863705 23.9356556,14.6349617 C24.5271313,14.8835529 25.1657439,15.0078467 25.8515128,15.0078467 C26.2858331,15.0078467 26.673001,14.9792734 27.013028,14.922126 C27.3530551,14.8649786 27.6659325,14.7792587 27.9516695,14.6649639 C28.2374065,14.5506691 28.503138,14.4106601 28.7488718,14.2449326 C28.9946057,14.0792051 29.2374785,13.8849068 29.4774976,13.662032 C29.5060713,13.639173 29.5346446,13.6206004 29.5632183,13.6063135 C29.591792,13.5920267 29.6203653,13.5848833 29.648939,13.5848833 Z M39.7554073,3.49555917 L39.7554073,4.22418496 L33.3692166,4.22418496 L33.3692166,9.12740792 L38.6838988,9.12740792 L38.6838988,9.83888958 L33.3692166,9.83888958 L33.3692166,14.8964098 L39.7725514,14.8964098 L39.7554073,15.6250356 L32.4862935,15.6250356 L32.4862935,3.49555917 L39.7554073,3.49555917 Z M43.3128156,14.8792656 L49.0561012,14.8792656 L49.0561012,15.6250356 L42.4298926,15.6250356 L42.4298926,3.49555917 L43.3128156,3.49555917 L43.3128156,14.8792656 Z M58.3739393,3.49555917 L58.3739393,4.22418496 L51.9877485,4.22418496 L51.9877485,9.12740792 L57.3024307,9.12740792 L57.3024307,9.83888958 L51.9877485,9.83888958 L51.9877485,14.8964098 L58.3910834,14.8964098 L58.3739393,15.6250356 L51.1048255,15.6250356 L51.1048255,3.49555917 L58.3739393,3.49555917 Z M57.1995659,2.40690652 L56.5909491,2.40690652 C56.5452312,2.40690652 56.4937993,2.39833454 56.4366519,2.38119031 C56.3795045,2.36404609 56.3195006,2.32404351 56.2566384,2.26118136 L54.8851075,0.666776691 L54.816531,0.58105601 C54.8051015,0.592485491 54.7951009,0.606772128 54.7865287,0.62391635 C54.7779566,0.641060572 54.767956,0.65534721 54.7565265,0.666776691 L53.3935677,2.26118136 C53.3307055,2.32404351 53.269273,2.36404609 53.2092682,2.38119031 C53.1492634,2.39833454 53.0964029,2.40690652 53.050685,2.40690652 L52.4677843,2.40690652 L54.4822203,0.118164331 L55.1851299,0.118164331 L57.1995659,2.40690652 Z M61.4856,3.49555917 C61.5656064,3.49555917 61.6270389,3.50555982 61.6698994,3.52556141 C61.71276,3.545563 61.7599059,3.58985158 61.8113386,3.65842846 L69.671925,14.167784 C69.6547808,13.9963418 69.6462088,13.8306168 69.6462088,13.670604 L69.6462088,3.49555917 L70.4091229,3.49555917 L70.4091229,15.6250356 L69.9976636,15.6250356 C69.923372,15.6250356 69.8619395,15.6121776 69.8133642,15.5864612 C69.7647889,15.5607449 69.717643,15.5164563 69.671925,15.4535942 L61.7941944,4.93566661 C61.8113387,5.10710883 61.8199106,5.26711917 61.8199106,5.41570243 L61.8199106,15.6250356 L61.0484245,15.6250356 L61.0484245,3.49555917 L61.4856,3.49555917 Z M82.7443289,13.5848833 C82.8014763,13.5848833 82.8500509,13.6048846 82.8900541,13.6448878 L83.2329368,14.0134867 C82.9814882,14.2820796 82.7086134,14.5235237 82.4143043,14.7378265 C82.1199951,14.9521293 81.7971171,15.1349982 81.4456606,15.2864389 C81.094204,15.4378795 80.7084648,15.5550299 80.2884314,15.6378937 C79.868398,15.7207574 79.4069396,15.7621886 78.9040424,15.7621886 C78.0639755,15.7621886 77.2939258,15.6150363 76.59387,15.3207271 C75.8938143,15.026418 75.2923469,14.6092482 74.7894497,14.0692052 C74.2865525,13.5291622 73.8965273,12.8762629 73.6193624,12.1104876 C73.3421975,11.3447124 73.2036171,10.4932288 73.2036171,9.55601133 C73.2036171,8.63593808 73.3464835,7.79588381 73.6322205,7.0358233 C73.9179575,6.2757628 74.3179834,5.62286347 74.83231,5.07710574 C75.3466367,4.531348 75.9638194,4.10846354 76.6838768,3.80843966 C77.4039341,3.50841577 78.1982711,3.35840608 79.0669117,3.35840608 C79.8955491,3.35840608 80.6298822,3.48698582 81.2699332,3.74414914 C81.9099842,4.00131247 82.492879,4.36419306 83.0186351,4.8328018 L82.752901,5.21854486 C82.7071831,5.28712175 82.6357499,5.32140968 82.5385993,5.32140968 C82.4700224,5.32140968 82.3585866,5.25854847 82.2042886,5.13282418 C82.0499906,5.00709989 81.8356911,4.8685195 81.5613835,4.71707888 C81.287076,4.56563825 80.9456253,4.42705787 80.5370214,4.30133357 C80.1284174,4.17560928 79.6383858,4.11274807 79.0669117,4.11274807 C78.3354249,4.11274807 77.6653816,4.23847048 77.0567617,4.48991907 C76.4481418,4.74136766 75.9252509,5.10139092 75.4880733,5.56999965 C75.0508956,6.03860839 74.709445,6.61007388 74.4637111,7.28441328 C74.2179773,7.95875267 74.0951122,8.71594445 74.0951122,9.55601133 C74.0951122,10.4132224 74.2194059,11.1789862 74.4679971,11.8533256 C74.7165884,12.527665 75.058039,13.0977018 75.4923593,13.5634532 C75.9266796,14.0292045 76.4395699,14.3863705 77.0310455,14.6349617 C77.6225212,14.8835529 78.2611339,15.0078467 78.9469027,15.0078467 C79.381223,15.0078467 79.7683909,14.9792734 80.108418,14.922126 C80.448445,14.8649786 80.7613224,14.7792587 81.0470594,14.6649639 C81.3327965,14.5506691 81.5985279,14.4106601 81.8442618,14.2449326 C82.0899956,14.0792051 82.3328684,13.8849068 82.5728876,13.662032 C82.6014613,13.639173 82.6300345,13.6206004 82.6586082,13.6063135 C82.6871819,13.5920267 82.7157552,13.5848833 82.7443289,13.5848833 Z M86.4646065,15.6250356 L85.5816835,15.6250356 L85.5816835,3.49555917 L86.4646065,3.49555917 L86.4646065,15.6250356 Z M99.2712762,15.6250356 L98.5940829,15.6250356 C98.5140765,15.6250356 98.448358,15.6036056 98.3969253,15.560745 C98.3454926,15.5178845 98.30549,15.4621666 98.2769163,15.3935897 L96.853953,11.8704697 L90.8963657,11.8704697 L89.4734024,15.3935897 C89.4505434,15.4564519 89.4105408,15.5107411 89.3533934,15.556459 C89.296246,15.6021769 89.2276702,15.6250356 89.1476638,15.6250356 L88.4790425,15.6250356 L93.4422699,3.49555917 L94.3080488,3.49555917 L99.2712762,15.6250356 Z M91.1535277,11.2189925 L96.5882189,11.2189925 L94.1194633,5.08996384 C94.0337422,4.88994792 93.9508797,4.64993241 93.8708733,4.36991012 C93.8308701,4.50706389 93.7908676,4.63850096 93.7508644,4.76422525 C93.7108612,4.88994955 93.6708586,5.00138532 93.6308554,5.09853591 L91.1535277,11.2189925 Z" id="EXCELÊNCIA"></path>
                            <path d="M0.607640272,25.3364292 L0.607640272,28.4288841 L0.0488282361,28.4288841 L0.0488282361,20.7520003 L2.03450984,20.7520003 C2.93512403,20.7520003 3.61419141,20.9491198 4.07173236,21.3433645 C4.5292733,21.7376093 4.75804034,22.3000326 4.75804034,23.0306514 C4.75804034,23.3670253 4.69474511,23.6762677 4.56815276,23.9583879 C4.4415604,24.240508 4.26071689,24.4837425 4.0256168,24.6880987 C3.79051671,24.8924549 3.50478396,25.0515972 3.16840999,25.1655304 C2.83203601,25.2794635 2.45407308,25.3364292 2.03450984,25.3364292 L0.607640272,25.3364292 Z M0.607640272,24.8915497 L2.03450984,24.8915497 C2.37088381,24.8915497 2.67289248,24.8445304 2.94054489,24.7504903 C3.2081973,24.6564503 3.4351559,24.526243 3.62142751,24.3598645 C3.80769912,24.1934859 3.95056549,23.9972707 4.05003092,23.7712129 C4.14949634,23.5451552 4.19922831,23.2983038 4.19922831,23.0306514 C4.19922831,22.4410927 4.0183848,21.9871755 3.65669235,21.6688861 C3.2949999,21.3505968 2.75427781,21.1914545 2.03450984,21.1914545 L0.607640272,21.1914545 L0.607640272,24.8915497 Z M12.1582308,28.4288841 L11.7296274,28.4288841 C11.6789904,28.4288841 11.6373964,28.4153209 11.6048441,28.3881939 C11.5722918,28.361067 11.5469737,28.3258025 11.5288891,28.2823994 L10.6282794,26.0525766 L6.85765449,26.0525766 L5.95704481,28.2823994 C5.94257711,28.3221856 5.91725902,28.3565459 5.88108977,28.3854813 C5.84492053,28.4144167 5.80151808,28.4288841 5.75088114,28.4288841 L5.3277031,28.4288841 L8.46898629,20.7520003 L9.0169476,20.7520003 L12.1582308,28.4288841 Z M7.02041528,25.6402493 L10.4600932,25.6402493 L8.89758969,21.7611172 C8.84333582,21.6345249 8.79089121,21.4826163 8.74025426,21.305387 C8.71493579,21.3921932 8.6896177,21.4753812 8.66429923,21.5549536 C8.63898076,21.6345259 8.61366267,21.7050549 8.5883442,21.7665426 L7.02041528,25.6402493 Z M13.9920023,24.956654 L13.9920023,28.4288841 L13.4331903,28.4288841 L13.4331903,20.7520003 L15.3971705,20.7520003 C16.2797,20.7520003 16.9406831,20.9228975 17.3801394,21.2646968 C17.8195957,21.6064962 18.0393206,22.1083369 18.0393206,22.7702341 C18.0393206,23.063205 17.9877802,23.3308534 17.8846978,23.5731873 C17.7816155,23.8155213 17.6351322,24.0280124 17.4452437,24.2106671 C17.2553552,24.3933218 17.0256839,24.5434219 16.756223,24.6609719 C16.4867622,24.778522 16.1856577,24.8553805 15.8529007,24.8915497 C15.9397068,24.9458036 16.0174696,25.018141 16.0861911,25.1085641 L18.7283412,28.4288841 L18.2509096,28.4288841 C18.1894219,28.4288841 18.1378815,28.4189377 18.0962868,28.3990447 C18.0546922,28.3791516 18.0158109,28.3420787 17.9796416,28.2878248 L15.5165284,25.1736684 C15.487593,25.1338822 15.4577538,25.099522 15.4270099,25.0705866 C15.3962661,25.0416512 15.3619058,25.0190457 15.3239281,25.0027696 C15.2859504,24.9864934 15.2407395,24.9747386 15.1882941,24.9675047 C15.1358487,24.9602709 15.0716493,24.956654 14.9956938,24.956654 L13.9920023,24.956654 Z M13.9920023,24.5443267 L15.3212154,24.5443267 C15.6612063,24.5443267 15.9659276,24.5036369 16.2353885,24.4222561 C16.5048494,24.3408753 16.7327122,24.2242312 16.9189838,24.0723204 C17.1052554,23.9204096 17.2472176,23.7377576 17.3448745,23.5243591 C17.4425315,23.3109605 17.4913592,23.0704387 17.4913592,22.8027863 C17.4913592,22.2566307 17.3132284,21.8515412 16.9569613,21.5875057 C16.6006943,21.3234702 16.0807692,21.1914545 15.3971705,21.1914545 L13.9920023,21.1914545 L13.9920023,24.5443267 Z M25.8572637,28.4288841 L25.4286603,28.4288841 C25.3780234,28.4288841 25.3364293,28.4153209 25.303877,28.3881939 C25.2713247,28.361067 25.2460066,28.3258025 25.227922,28.2823994 L24.3273123,26.0525766 L20.5566874,26.0525766 L19.6560777,28.2823994 C19.64161,28.3221856 19.6162919,28.3565459 19.5801227,28.3854813 C19.5439534,28.4144167 19.500551,28.4288841 19.4499141,28.4288841 L19.026736,28.4288841 L22.1680192,20.7520003 L22.7159805,20.7520003 L25.8572637,28.4288841 Z M20.7194482,25.6402493 L24.1591262,25.6402493 L22.5966226,21.7611172 C22.5423687,21.6345249 22.4899241,21.4826163 22.4392872,21.305387 C22.4139687,21.3921932 22.3886506,21.4753812 22.3633321,21.5549536 C22.3380137,21.6345259 22.3126956,21.7050549 22.2873771,21.7665426 L20.7194482,25.6402493 Z M35.9158803,28.4288841 L35.4872769,28.4288841 C35.43664,28.4288841 35.395046,28.4153209 35.3624937,28.3881939 C35.3299413,28.361067 35.3046233,28.3258025 35.2865386,28.2823994 L34.3859289,26.0525766 L30.615304,26.0525766 L29.7146944,28.2823994 C29.7002267,28.3221856 29.6749086,28.3565459 29.6387393,28.3854813 C29.6025701,28.4144167 29.5591676,28.4288841 29.5085307,28.4288841 L29.0853526,28.4288841 L32.2266358,20.7520003 L32.7745971,20.7520003 L35.9158803,28.4288841 Z M30.7780648,25.6402493 L34.2177428,25.6402493 L32.6552392,21.7611172 C32.6009854,21.6345249 32.5485408,21.4826163 32.4979038,21.305387 C32.4725853,21.3921932 32.4472672,21.4753812 32.4219488,21.5549536 C32.3966303,21.6345259 32.3713122,21.7050549 32.3459937,21.7665426 L30.7780648,25.6402493 Z M43.8640321,21.6851622 C43.8314798,21.7466499 43.7844605,21.7773933 43.7229728,21.7773933 C43.6759527,21.7773933 43.6153702,21.7439373 43.5412232,21.6770242 C43.4670763,21.6101111 43.3667081,21.5359652 43.2401158,21.4545844 C43.1135234,21.3732036 42.9552853,21.2981536 42.7653968,21.229432 C42.5755083,21.1607104 42.3413159,21.1263502 42.0628127,21.1263502 C41.7843095,21.1263502 41.5392666,21.1661357 41.3276765,21.2457081 C41.1160864,21.3252804 40.9388598,21.4337865 40.7959913,21.5712296 C40.6531228,21.7086728 40.5446166,21.8678151 40.4704697,22.0486613 C40.3963227,22.2295075 40.3592498,22.4193932 40.3592498,22.618324 C40.3592498,22.8787426 40.4144071,23.0939464 40.5247233,23.2639418 C40.6350395,23.4339373 40.7806185,23.5786121 40.9614647,23.6979706 C41.142311,23.8173291 41.3475683,23.9176972 41.577243,23.999078 C41.8069178,24.0804588 42.0429185,24.1609342 42.2852525,24.2405065 C42.5275864,24.3200789 42.7635872,24.407788 42.9932619,24.5036365 C43.2229366,24.599485 43.428194,24.7197459 43.6090402,24.8644229 C43.7898864,25.0090999 43.9354655,25.1872307 44.0457817,25.3988208 C44.1560978,25.6104109 44.2112551,25.8735382 44.2112551,26.1882106 C44.2112551,26.5101169 44.1560978,26.8130298 44.0457817,27.0969584 C43.9354655,27.3808869 43.7754189,27.6277383 43.5656373,27.8375199 C43.3558557,28.0473016 43.0990579,28.2127734 42.7952363,28.3339403 C42.4914146,28.4551073 42.1441951,28.5156899 41.7535672,28.5156899 C41.2471978,28.5156899 40.8113649,28.4261724 40.4460556,28.2471346 C40.0807462,28.0680968 39.7606532,27.8230539 39.4857669,27.5119984 L39.637677,27.2732825 C39.6810801,27.2190287 39.7317163,27.1919022 39.7895871,27.1919022 C39.8221394,27.1919022 39.8637334,27.2136034 39.9143703,27.2570065 C39.9650073,27.3004096 40.0264941,27.3537584 40.0988326,27.4170546 C40.1711711,27.4803508 40.2579759,27.5490713 40.3592498,27.6232182 C40.4605237,27.6973652 40.578072,27.7660857 40.7118982,27.8293819 C40.8457244,27.8926781 40.9994414,27.9460269 41.1730538,27.98943 C41.3466661,28.0328331 41.5437856,28.0545343 41.764418,28.0545343 C42.0682396,28.0545343 42.3395049,28.0084192 42.5782219,27.9161877 C42.8169389,27.8239561 43.0185794,27.6982698 43.1831495,27.5391252 C43.3477195,27.3799805 43.4734058,27.190999 43.560212,26.9721751 C43.6470182,26.7533512 43.6904206,26.5191588 43.6904206,26.269591 C43.6904206,25.9983217 43.6352633,25.77498 43.5249471,25.5995591 C43.4146309,25.4241383 43.2690519,25.277655 43.0882057,25.160105 C42.9073595,25.042555 42.7021021,24.9439952 42.4724274,24.8644229 C42.2427527,24.7848506 42.0067519,24.7070879 41.764418,24.6311324 C41.522084,24.555177 41.2860832,24.4701806 41.0564085,24.3761405 C40.8267338,24.2821005 40.6214764,24.1618396 40.4406302,24.0153541 C40.259784,23.8688687 40.114205,23.6862167 40.0038888,23.4673928 C39.8935726,23.2485689 39.8384153,22.974591 39.8384153,22.6454508 C39.8384153,22.3886492 39.8872431,22.1408936 39.9849,21.9021766 C40.082557,21.6634596 40.2254233,21.4527769 40.4135034,21.2701222 C40.6015835,21.0874675 40.8339674,20.9409843 41.1106621,20.8306681 C41.3873568,20.7203519 41.7029288,20.6651946 42.0573874,20.6651946 C42.4552491,20.6651946 42.812415,20.7284898 43.1288959,20.8550822 C43.4453768,20.9816745 43.7338222,21.1751771 43.9942407,21.4355957 L43.8640321,21.6851622 Z M52.7616218,24.5877296 C52.7616218,25.1809052 52.6730085,25.7189146 52.4957792,26.201774 C52.3185499,26.6846334 52.0689858,27.0969567 51.7470796,27.438756 C51.4251733,27.7805554 51.0390724,28.0445869 50.5887653,28.2308585 C50.1384582,28.4171301 49.6420428,28.5102645 49.0995041,28.5102645 C48.5569654,28.5102645 48.0614542,28.4171301 47.6129556,28.2308585 C47.1644569,28.0445869 46.7792603,27.7805554 46.457354,27.438756 C46.1354477,27.0969567 45.8858837,26.6846334 45.7086544,26.201774 C45.5314251,25.7189146 45.4428117,25.1809052 45.4428117,24.5877296 C45.4428117,23.9981709 45.5314251,23.4619699 45.7086544,22.9791104 C45.8858837,22.496251 46.1354477,22.0839278 46.457354,21.7421285 C46.7792603,21.4003291 47.1644569,21.1353934 47.6129556,20.9473133 C48.0614542,20.7592332 48.5569654,20.6651946 49.0995041,20.6651946 C49.6420428,20.6651946 50.1384582,20.758329 50.5887653,20.9446006 C51.0390724,21.1308722 51.4251733,21.395808 51.7470796,21.7394158 C52.0689858,22.0830236 52.3185499,22.496251 52.4957792,22.9791104 C52.6730085,23.4619699 52.7616218,23.9981709 52.7616218,24.5877296 Z M52.1865337,24.5877296 C52.1865337,24.0524247 52.1123878,23.571381 51.9640939,23.1445839 C51.8158,22.7177868 51.6060216,22.3560998 51.3347522,22.059512 C51.0634829,21.7629242 50.7379646,21.5359656 50.3581875,21.3786294 C49.9784104,21.2212932 49.5588535,21.1426262 49.0995041,21.1426262 C48.6437716,21.1426262 48.2260231,21.2212932 47.846246,21.3786294 C47.466469,21.5359656 47.1400464,21.7629242 46.8669686,22.059512 C46.5938908,22.3560998 46.3823039,22.7177868 46.2322016,23.1445839 C46.0820992,23.571381 46.0070491,24.0524247 46.0070491,24.5877296 C46.0070491,25.1266513 46.0820992,25.6085993 46.2322016,26.0335879 C46.3823039,26.4585765 46.5938908,26.8193593 46.8669686,27.1159471 C47.1400464,27.4125349 47.466469,27.6385893 47.846246,27.7941171 C48.2260231,27.9496448 48.6437716,28.0274075 49.0995041,28.0274075 C49.5588535,28.0274075 49.9784104,27.9496448 50.3581875,27.7941171 C50.7379646,27.6385893 51.0634829,27.4125349 51.3347522,27.1159471 C51.6060216,26.8193593 51.8158,26.4585765 51.9640939,26.0335879 C52.1123878,25.6085993 52.1865337,25.1266513 52.1865337,24.5877296 Z M60.0695811,27.1376486 C60.1057504,27.1376486 60.1364938,27.1503076 60.1618122,27.1756261 L60.3788266,27.4089165 C60.219682,27.578912 60.0469764,27.7317248 59.8607048,27.8673594 C59.6744332,28.0029941 59.47008,28.1187339 59.2476392,28.2145824 C59.0251983,28.3104309 58.7810596,28.3845768 58.5152156,28.4370222 C58.2493717,28.4894676 57.9573094,28.5156899 57.63902,28.5156899 C57.1073322,28.5156899 56.6199589,28.4225555 56.1768856,28.2362839 C55.7338124,28.0500123 55.3531368,27.7859807 55.0348475,27.4441814 C54.7165581,27.102382 54.4697067,26.6891546 54.2942859,26.2044867 C54.118865,25.7198188 54.0311559,25.1809052 54.0311559,24.5877296 C54.0311559,24.0054047 54.1215777,23.4737248 54.3024239,22.9926738 C54.4832701,22.5116229 54.7364511,22.0983955 55.0619743,21.7529792 C55.3874975,21.4075629 55.7781194,21.1399145 56.2338519,20.950026 C56.6895844,20.7601374 57.1923294,20.6651946 57.7421019,20.6651946 C58.2665559,20.6651946 58.7313238,20.7465742 59.1364193,20.9093358 C59.5415148,21.0720974 59.9104356,21.3017686 60.2431926,21.5983564 L60.0750065,21.8424976 C60.0460711,21.8859007 60.0008602,21.9076019 59.9393725,21.9076019 C59.8959694,21.9076019 59.8254404,21.8678164 59.7277835,21.788244 C59.6301265,21.7086717 59.4944939,21.6209626 59.3208815,21.5251141 C59.1472691,21.4292656 58.9311611,21.3415565 58.672551,21.2619841 C58.4139409,21.1824118 58.1037943,21.1426262 57.7421019,21.1426262 C57.2791355,21.1426262 56.8550575,21.2221974 56.4698551,21.3813421 C56.0846526,21.5404867 55.753709,21.7683496 55.4770143,22.0649374 C55.2003195,22.3615252 54.9842115,22.7232122 54.8286838,23.1500093 C54.673156,23.5768064 54.5953933,24.0560417 54.5953933,24.5877296 C54.5953933,25.1302682 54.6740603,25.6149288 54.8313965,26.0417259 C54.9887327,26.468523 55.2048407,26.8293058 55.4797269,27.1240852 C55.7546132,27.4188645 56.0792273,27.6449189 56.453579,27.8022551 C56.8279307,27.9595913 57.2321159,28.0382582 57.6661468,28.0382582 C57.9410331,28.0382582 58.1860761,28.0201739 58.4012831,27.9840047 C58.6164901,27.9478354 58.8145137,27.8935824 58.9953599,27.8212439 C59.1762062,27.7489054 59.3443906,27.6602921 59.4999184,27.5554012 C59.6554461,27.4505104 59.8091631,27.3275368 59.9610739,27.1864768 C59.9791586,27.1720091 59.9972429,27.1602543 60.0153275,27.151212 C60.0334122,27.1421696 60.0514965,27.1376486 60.0695811,27.1376486 Z M62.4241872,28.4288841 L61.8653752,28.4288841 L61.8653752,20.7520003 L62.4241872,20.7520003 L62.4241872,28.4288841 Z M69.2926924,20.7520003 L69.2926924,21.2131559 L65.2507995,21.2131559 L65.2507995,24.3164616 L68.6145225,24.3164616 L68.6145225,24.7667664 L65.2507995,24.7667664 L65.2507995,27.9677286 L69.3035431,27.9677286 L69.2926924,28.4288841 L64.6919875,28.4288841 L64.6919875,20.7520003 L69.2926924,20.7520003 Z M77.4524332,24.5877296 C77.4524332,25.1809052 77.3638199,25.7143935 77.1865906,26.1882106 C77.0093613,26.6620277 76.7597972,27.0653088 76.437891,27.3980658 C76.1159847,27.7308229 75.7298838,27.9858122 75.2795767,28.1630415 C74.8292696,28.3402708 74.3328542,28.4288841 73.7903155,28.4288841 L70.9854046,28.4288841 L70.9854046,20.7520003 L73.7903155,20.7520003 C74.3328542,20.7520003 74.8292696,20.8406137 75.2795767,21.017843 C75.7298838,21.1950723 76.1159847,21.4500616 76.437891,21.7828187 C76.7597972,22.1155757 77.0093613,22.5188567 77.1865906,22.9926738 C77.3638199,23.466491 77.4524332,23.9981709 77.4524332,24.5877296 Z M76.8773451,24.5877296 C76.8773451,24.0524247 76.8031992,23.5749979 76.6549053,23.1554346 C76.5066114,22.7358714 76.296833,22.3814181 76.0255636,22.0920642 C75.7542943,21.8027102 75.428776,21.5820811 75.0489989,21.4301703 C74.6692218,21.2782595 74.2496649,21.2023052 73.7903155,21.2023052 L71.5442166,21.2023052 L71.5442166,27.9785793 L73.7903155,27.9785793 C74.2496649,27.9785793 74.6692218,27.902625 75.0489989,27.7507142 C75.428776,27.5988034 75.7542943,27.3781743 76.0255636,27.0888203 C76.296833,26.7994664 76.5066114,26.4450131 76.6549053,26.0254498 C76.8031992,25.6058866 76.8773451,25.1266513 76.8773451,24.5877296 Z M85.069638,28.4288841 L84.6410346,28.4288841 C84.5903977,28.4288841 84.5488037,28.4153209 84.5162513,28.3881939 C84.483699,28.361067 84.4583809,28.3258025 84.4402963,28.2823994 L83.5396866,26.0525766 L79.7690617,26.0525766 L78.868452,28.2823994 C78.8539843,28.3221856 78.8286662,28.3565459 78.792497,28.3854813 C78.7563278,28.4144167 78.7129253,28.4288841 78.6622884,28.4288841 L78.2391103,28.4288841 L81.3803935,20.7520003 L81.9283548,20.7520003 L85.069638,28.4288841 Z M79.9318225,25.6402493 L83.3715005,25.6402493 L81.8089969,21.7611172 C81.7547431,21.6345249 81.7022984,21.4826163 81.6516615,21.305387 C81.626343,21.3921932 81.6010249,21.4753812 81.5757065,21.5549536 C81.550388,21.6345259 81.5250699,21.7050549 81.4997514,21.7665426 L79.9318225,25.6402493 Z M92.8116261,24.5877296 C92.8116261,25.1809052 92.7230128,25.7143935 92.5457835,26.1882106 C92.3685542,26.6620277 92.1189902,27.0653088 91.7970839,27.3980658 C91.4751776,27.7308229 91.0890767,27.9858122 90.6387696,28.1630415 C90.1884625,28.3402708 89.6920471,28.4288841 89.1495084,28.4288841 L86.3445975,28.4288841 L86.3445975,20.7520003 L89.1495084,20.7520003 C89.6920471,20.7520003 90.1884625,20.8406137 90.6387696,21.017843 C91.0890767,21.1950723 91.4751776,21.4500616 91.7970839,21.7828187 C92.1189902,22.1155757 92.3685542,22.5188567 92.5457835,22.9926738 C92.7230128,23.466491 92.8116261,23.9981709 92.8116261,24.5877296 Z M92.236538,24.5877296 C92.236538,24.0524247 92.1623922,23.5749979 92.0140983,23.1554346 C91.8658044,22.7358714 91.6560259,22.3814181 91.3847566,22.0920642 C91.1134872,21.8027102 90.7879689,21.5820811 90.4081918,21.4301703 C90.0284148,21.2782595 89.6088578,21.2023052 89.1495084,21.2023052 L86.9034096,21.2023052 L86.9034096,27.9785793 L89.1495084,27.9785793 C89.6088578,27.9785793 90.0284148,27.902625 90.4081918,27.7507142 C90.7879689,27.5988034 91.1134872,27.3781743 91.3847566,27.0888203 C91.6560259,26.7994664 91.8658044,26.4450131 92.0140983,26.0254498 C92.1623922,25.6058866 92.236538,25.1266513 92.236538,24.5877296 Z M99.191849,20.7520003 L99.191849,21.2131559 L95.1499561,21.2131559 L95.1499561,24.3164616 L98.513679,24.3164616 L98.513679,24.7667664 L95.1499561,24.7667664 L95.1499561,27.9677286 L99.2026997,27.9677286 L99.191849,28.4288841 L94.5911441,28.4288841 L94.5911441,20.7520003 L99.191849,20.7520003 Z" id="PARA-A-SOCIEDADE"></path>
                        </g>
                    </g>
                </g>
            </g>
        </g>
    </g>
</svg>