<?xml version="1.0" encoding="UTF-8" standalone="no"?>
<svg width="76px" height="20px" viewBox="0 0 76 20" version="1.1" xmlns="http://www.w3.org/2000/svg" xmlns:xlink="http://www.w3.org/1999/xlink">
    <!-- Generator: sketchtool 45.2 (43514) - http://www.bohemiancoding.com/sketch -->
    <title>6F25EEFD-D8E8-4C18-B361-4146F0C2AC03</title>
    <desc>Created with sketchtool.</desc>
    <defs></defs>
    <g id="Page-1" stroke="none" stroke-width="1" fill="none" fill-rule="evenodd">
        <g id="LP-USP" transform="translate(-400.000000, -24.000000)">
            <g id="Group-6">
                <g id="logo-usp-b" transform="translate(401.000000, 24.000000)">
                    <path d="M34.829091,16.2677641 C35.5030107,16.2677641 36.1056414,16.1554458 36.6370012,15.9308059 C37.168361,15.706166 37.6154741,15.3908109 37.9783539,14.984731 C38.3412338,14.5786512 38.6198695,14.0861788 38.8142694,13.5072991 C39.0086693,12.9284193 39.1058678,12.2804293 39.1058678,11.5633096 L39.1058678,0.340010515 L42.5920889,0.340010515 L42.5920889,11.5633096 C42.5920889,12.6778691 42.4128116,13.7081732 42.0542518,14.6542528 C41.6956919,15.6003324 41.1816199,16.4167998 40.5120202,17.1036795 C39.8424204,17.7905593 39.028113,18.326231 38.0690734,18.7107108 C37.1100338,19.0951907 36.0300505,19.2874277 34.829091,19.2874277 C33.6194915,19.2874277 32.5351882,19.0951907 31.5761487,18.7107108 C30.6171091,18.326231 29.8028016,17.7905593 29.1332019,17.1036795 C28.4636022,16.4167998 27.9495301,15.6003324 27.5909703,14.6542528 C27.2324104,13.7081732 27.0531332,12.6778691 27.0531332,11.5633096 L27.0531332,0.340010515 L30.5393543,0.340010515 L30.5393543,11.5503497 C30.5393543,12.2674694 30.6365528,12.9154594 30.8309527,13.4943391 C31.0253526,14.0732189 31.3061483,14.5678513 31.6733481,14.9782511 C32.040548,15.3886509 32.489821,15.706166 33.0211808,15.9308059 C33.5525406,16.1554458 34.1551713,16.2677641 34.829091,16.2677641 Z M56.5110533,3.74847202 C56.4073734,3.92991194 56.2972151,4.06166991 56.1805751,4.14374987 C56.0639352,4.22582984 55.9192174,4.26686921 55.7464175,4.26686921 C55.5649776,4.26686921 55.3684206,4.19991024 55.1567407,4.0659903 C54.9450608,3.93207035 54.6923447,3.78303265 54.3985848,3.61887272 C54.1048249,3.45471279 53.7613902,3.30567509 53.3682704,3.17175515 C52.9751506,3.03783521 52.5107577,2.97087624 51.975078,2.97087624 C51.4912382,2.97087624 51.0678847,3.02919534 50.7050048,3.14583529 C50.342125,3.26247524 50.0375697,3.42447274 49.7913298,3.63183265 C49.5450899,3.83919256 49.3614927,4.08758873 49.2405328,4.37702861 C49.1195728,4.66646848 49.0590938,4.98398359 49.0590938,5.32958344 C49.0590938,5.77022325 49.1822119,6.13741759 49.4284518,6.43117746 C49.6746917,6.72493734 50.0008466,6.97549347 50.4069265,7.18285338 C50.8130063,7.39021329 51.2752392,7.57597043 51.7936389,7.74013036 C52.3120387,7.90429029 52.8433905,8.07924759 53.3877103,8.26500751 C53.9320301,8.45076743 54.4633819,8.6667641 54.9817816,8.91300399 C55.5001814,9.15924389 55.9624143,9.47027909 56.3684941,9.84611893 C56.7745739,10.2219588 57.1007289,10.6820317 57.3469688,11.2263514 C57.5932087,11.7706712 57.7163268,12.431621 57.7163268,13.2092207 C57.7163268,14.0559403 57.571609,14.8486481 57.2821692,15.5873678 C56.9927293,16.3260875 56.5693758,16.9697575 56.0120961,17.5183973 C55.4548163,18.0670371 54.7744268,18.4990304 53.9709071,18.8143903 C53.1673875,19.1297501 52.2472417,19.2874277 51.2104421,19.2874277 C50.6142824,19.2874277 50.0267714,19.2291086 49.4478917,19.1124686 C48.8690119,18.9958287 48.3139005,18.8295113 47.7825407,18.6135114 C47.2511809,18.3975114 46.7522286,18.1383154 46.2856688,17.8359156 C45.819109,17.5335157 45.4043954,17.1965609 45.0415156,16.8250411 L46.06535,15.1532101 C46.15175,15.0322502 46.2640683,14.9307317 46.4023082,14.8486518 C46.5405481,14.7665718 46.6874259,14.7255325 46.8429458,14.7255325 C47.0589457,14.7255325 47.2922221,14.8140911 47.542782,14.991211 C47.7933419,15.1683309 48.0914173,15.3648879 48.4370172,15.5808878 C48.782617,15.7968877 49.1865308,15.9934447 49.6487706,16.1705646 C50.1110104,16.3476845 50.6661218,16.4362432 51.3141215,16.4362432 C52.3077211,16.4362432 53.0766693,16.2008068 53.620989,15.729927 C54.1653088,15.2590472 54.4374646,14.5829776 54.4374646,13.701698 C54.4374646,13.2092182 54.3143465,12.8074644 54.0681066,12.4964245 C53.8218667,12.1853847 53.4957117,11.9240287 53.0896319,11.7123488 C52.6835521,11.5006689 52.2213192,11.3213917 51.7029194,11.1745117 C51.1845197,11.0276318 50.6574878,10.8677942 50.121808,10.6949943 C49.5861282,10.5221944 49.0590964,10.3148376 48.5406966,10.0729177 C48.0222968,9.8309978 47.5600639,9.51564267 47.1539841,9.12684283 C46.7479043,8.738043 46.4217493,8.2520505 46.1755094,7.66885074 C45.9292695,7.08565099 45.8061514,6.36638209 45.8061514,5.51102245 C45.8061514,4.82846275 45.9422293,4.16319301 46.2143892,3.51519328 C46.4865491,2.86719356 46.881823,2.29264242 47.4002228,1.79152264 C47.9186226,1.29040285 48.5579727,0.88864905 49.3182924,0.586249179 C50.0786121,0.283849308 50.9512386,0.13265164 51.9361982,0.13265164 C53.0421177,0.13265164 54.061622,0.305448974 54.9947416,0.651048827 C55.9278612,0.99664868 56.7227289,1.48048122 57.3793686,2.10256095 L56.5110533,3.74847202 Z M64.2351714,12.4834646 L64.2351714,19.0800688 L60.7489503,19.0800688 L60.7489503,0.340010515 L66.8401173,0.340010515 C68.0929168,0.340010515 69.17722,0.486888249 70.0930596,0.780648124 C71.0088992,1.074408 71.7648876,1.48480167 72.3610473,2.01184144 C72.9572071,2.53888122 73.4000002,3.16959149 73.6894401,3.90399117 C73.97888,4.63839086 74.1235978,5.44189847 74.1235978,6.31453809 C74.1235978,7.22173771 73.9724001,8.05332488 73.6700002,8.80932456 C73.3676004,9.56532423 72.9140074,10.2154742 72.3092076,10.759794 C71.7044079,11.3041137 70.9462596,11.7274672 70.03474,12.0298671 C69.1232203,12.332267 68.0583568,12.4834646 66.8401173,12.4834646 L64.2351714,12.4834646 Z M64.2351714,9.76187939 L66.8401173,9.76187939 C67.479477,9.76187939 68.0367484,9.68196062 68.5119482,9.52212069 C68.987148,9.36228076 69.3824219,9.13332429 69.6977818,8.83524442 C70.0131417,8.53716454 70.248578,8.17429014 70.404098,7.74661032 C70.5596179,7.31893051 70.6373767,6.84157787 70.6373767,6.31453809 C70.6373767,5.81341831 70.5596179,5.35982531 70.404098,4.95374548 C70.248578,4.54766565 70.0153016,4.20207098 69.7042618,3.9169511 C69.3932219,3.63183123 69.0001079,3.41367459 68.5249082,3.26247466 C68.0497084,3.11127472 67.488117,3.03567589 66.8401173,3.03567589 L64.2351714,3.03567589 L64.2351714,9.76187939 Z" id="USP" fill="#FFFFFF"></path>
                    <g id="Group" transform="translate(0.000000, 11.160112)" stroke="#FFFFFF">
                        <path d="M1.06778877,0.899995116 L34.2556389,0.899995116" id="Line" stroke-width="0.5" stroke-linecap="square"></path>
                        <circle id="Oval" fill="#FFFFFF" cx="1.43999219" cy="1.43999219" r="1.43999219"></circle>
                        <circle id="Oval" fill="#FFFFFF" cx="34.5598125" cy="1.43999219" r="1.43999219"></circle>
                    </g>
                </g>
            </g>
        </g>
    </g>
</svg>